<svg xmlns="http://www.w3.org/2000/svg" viewBox="0 0 96 96" width="96" height="96">
	<style>
		tspan { white-space:pre }
	</style>
	<path id="O " fill="#000000" d="M90.36 48.76L90.36 48.76Q90.36 66.16 78 78.64Q65.64 91 48.12 91Q30.72 91 18.36 78.64Q6 66.16 6 48.76Q6 31.24 18.36 18.88Q30.72 6.52 48.12 6.52Q65.64 6.52 78 18.88Q90.36 31.24 90.36 48.76ZM81.24 48.76L81.24 48.76Q81.24 35.2 71.52 25.48Q61.92 15.64 48.12 15.64Q46.2 15.64 44.16 15.88Q42.24 16.12 40.32 16.6L40.32 80.92Q42.24 81.4 44.16 81.64Q46.2 81.88 48.12 81.88Q61.8 81.88 71.52 72.16Q81.24 62.44 81.24 48.76Z" />
</svg>